<svg width="58" height="58" fill="none" xmlns="http://www.w3.org/2000/svg"><path d="M32.152 16.825l-.023-.047-2.205-4.465a1.033 1.033 0 00-.926-.576h0l3.154 5.088zm0 0l.053.007m-.053-.007l.053.007m0 0l4.928.715s0 0 0 0a1.033 1.033 0 01.573 1.762l-5.502-2.477zm-6.359-.006l-.052.008-4.928.717h0a1.033 1.033 0 00-.572 1.762s0 0 0 0l3.567 3.475.038.037-.009.052-.84 4.908-.099-.017.099.017a1.033 1.033 0 001.498 1.088l4.407-2.318.047-.025.047.025 4.408 2.316h0c.348.183.77.152 1.087-.08h0a1.03 1.03 0 00.411-1.01l-.843-4.907-.009-.052.038-.037-8.295-5.959zm0 0l.023-.047m-.023.047l.023-.047m0 0l2.203-4.466c.174-.352.533-.576.926-.576l-3.129 5.042zm6.516 9.196l.18.094-.035-.2-.555-3.232a1.033 1.033 0 01.297-.915l2.348-2.29.145-.141-.2-.03-3.246-.47h0a1.033 1.033 0 01-.778-.565s0 0 0 0l-1.453-2.94-.09-.182-.089.182-1.45 2.941s0 0 0 0a1.035 1.035 0 01-.778.565l-3.246.473-.2.029.145.141 2.35 2.29c.243.236.354.578.296.913h0l-.553 3.233-.034.2.179-.095 2.903-1.526c.3-.159.66-.159.96 0h0l2.904 1.525z" fill="#fff" stroke="#E84A55" stroke-width=".2"/><path d="M44.975 33.477l.042-.054a20.417 20.417 0 004.5-12.806C49.517 9.304 40.313.1 29 .1 17.687.1 8.483 9.304 8.483 20.617c0 4.84 1.685 9.294 4.5 12.806l.042.053-.034.06-9.363 16.286s0 0 0 0c-.196.341-.182.764.037 1.09 0 0 0 0 0 0l-.083.056c.24.359.664.55 1.092.492l40.3-17.983zm0 0l.034.059 9.363 16.286c.196.341.181.764-.037 1.09l-9.36-17.435zM26.18 41.011v.001h5.64c.001.001.002.003 0 0h0s0 0 0 0l-.005-.01-.034-.057-.065.009a20.623 20.623 0 01-5.431 0l-.067-.01-.034.06-.004.007zM15.912 54.343l.078.188.101-.176 7.913-13.705.066-.114-.128-.033a20.517 20.517 0 01-9.373-5.316l-.092-.091-.065.112-7.848 13.65-.101.176.201-.027 5.362-.72.047-.006.025-.04 1.85-3.021-.084-.053.085.053a1.033 1.033 0 011.761 1.08l-1.832 2.989-.026.043.019.047 2.041 4.964zm29.99-6.102l.025.04.047.006 5.361.72.201.027-.1-.176-7.848-13.65-.065-.112-.093.091a20.516 20.516 0 01-9.372 5.316l-.128.033.066.114 7.912 13.705.102.176.077-.188 2.042-4.964.019-.047-.027-.044L42.29 46.3a1.033 1.033 0 01.341-1.42l-.052-.085.052.085a1.033 1.033 0 011.42.34l.086-.052-.085.053 1.85 3.02zM10.548 20.617c0 10.175 8.277 18.452 18.452 18.452 10.174 0 18.451-8.277 18.451-18.452 0-10.174-8.277-18.451-18.451-18.451-10.175 0-18.452 8.277-18.452 18.451z" fill="#fff" stroke="#E84A55" stroke-width=".2"/><path d="M21.836 7.862h0l20.46 19.093-.09-.043s0 0 0 0a1.033 1.033 0 11-1.864-.89 12.445 12.445 0 001.219-5.405c0-6.926-5.635-12.56-12.561-12.56-2.157 0-4.284.555-6.151 1.606h0a1.033 1.033 0 11-1.013-1.8zm16.175 21.506h0l-.025.026h0a1.033 1.033 0 00.017 1.46l.008-1.486zm0 0a1.033 1.033 0 011.46-.022l-1.46.022zm-1.555 2.665h0a1.033 1.033 0 00-1.404-.406l-.048-.088.049.088A12.571 12.571 0 0129 33.178c-6.927 0-12.561-5.634-12.561-12.56 0-1.815.378-3.565 1.123-5.202h0a1.033 1.033 0 00-.511-1.368l19.405 17.985zm0 0c.275.5.093 1.127-.407 1.403A14.643 14.643 0 0129 35.244c-8.064 0-14.626-6.562-14.626-14.627 0-2.112.44-4.15 1.31-6.057m20.773 17.473L15.683 14.56m0 0c.236-.52.849-.748 1.368-.512l-1.368.512zm4.073-3.963h0c.418.389.44 1.042.052 1.46h0l-.02.021h0a1.03 1.03 0 01-1.46.057h0a1.033 1.033 0 01-.056-1.46l.025-.026s0 0 0 0a1.033 1.033 0 011.46-.052z" fill="#fff" stroke="#E84A55" stroke-width=".2"/></svg>