<svg width="63" height="63" fill="none" xmlns="http://www.w3.org/2000/svg"><g clip-path="url(#clip0)" fill="#E84A55"><path d="M38.626 25.648l-9.466 8.94-4.543-4.673a1.309 1.309 0 10-1.878 1.825l5.449 5.593c.506.51 1.324.526 1.851.039l10.412-9.82a1.308 1.308 0 00.052-1.852 1.34 1.34 0 00-1.877-.052z"/><path d="M31.602 11.889c-10.819 0-19.615 8.796-19.615 19.614 0 10.819 8.796 19.615 19.614 19.615 10.82 0 19.616-8.796 19.616-19.615 0-10.818-8.797-19.614-19.615-19.614zm0 36.603c-9.375 0-16.99-7.628-16.99-16.989s7.615-16.989 16.99-16.989c9.383 0 16.989 7.607 16.989 16.99 0 9.382-7.606 16.988-16.99 16.988z"/><path d="M58.596 24.282l.433-7.785a1.31 1.31 0 00-.722-1.248l-6.933-3.505-3.505-6.932a1.332 1.332 0 00-1.247-.722l-7.8.42L32.325.216a1.312 1.312 0 00-1.444 0l-6.5 4.294-7.784-.433a1.308 1.308 0 00-1.248.722l-3.506 6.932-6.931 3.505a1.33 1.33 0 00-.722 1.248l.432 7.785-4.293 6.5a1.312 1.312 0 000 1.444l4.28 6.511-.433 7.786a1.31 1.31 0 00.722 1.247l6.933 3.506 3.505 6.932a1.33 1.33 0 001.247.722l7.786-.434 6.499 4.294a1.278 1.278 0 001.444 0l6.499-4.294 7.786.434a1.31 1.31 0 001.247-.722l3.505-6.932 6.933-3.506c.464-.238.746-.726.722-1.247l-.434-7.786 4.293-6.499a1.312 1.312 0 000-1.444l-4.267-6.499zm-2.443 13.366c-.16.235-.234.517-.21.8l.407 7.366-6.551 3.308c-.25.126-.452.329-.578.578l-3.308 6.552-7.366-.407c-.282-.01-.56.062-.8.21l-6.145 4.057-6.144-4.057a1.3 1.3 0 00-.722-.224h-.066l-7.366.408-3.308-6.552a1.293 1.293 0 00-.578-.578l-6.565-3.295.408-7.365c.01-.282-.063-.56-.21-.801l-4.057-6.145L7.05 25.36a1.23 1.23 0 00.21-.8l-.407-7.367 6.552-3.308c.25-.125.453-.328.578-.577l3.308-6.552 7.366.407c.281.01.56-.063.8-.21l6.145-4.057 6.144 4.057c.235.16.518.235.801.21l7.366-.407 3.309 6.552c.125.25.327.452.577.577l6.551 3.308-.407 7.366c-.01.282.064.56.21.8l4.057 6.145-4.057 6.145z"/></g><defs><clipPath id="clip0"><path fill="#fff" d="M0 0h63v63H0z"/></clipPath></defs></svg>