<svg width="19" height="19" fill="none" xmlns="http://www.w3.org/2000/svg"><g clip-path="url(#clip0)"><path d="M18.483 13.944l-2.652-2.651c-.947-.947-2.557-.569-2.936.663-.284.852-1.23 1.325-2.083 1.136-1.894-.474-4.45-2.936-4.924-4.924-.284-.853.284-1.8 1.136-2.084 1.231-.379 1.61-1.988.663-2.935L5.036.497c-.758-.663-1.894-.663-2.557 0l-1.8 1.8C-1.12 4.19.87 9.208 5.32 13.66c4.451 4.45 9.47 6.534 11.364 4.64l1.8-1.8c.662-.757.662-1.893 0-2.556z" fill="#E84A55"/></g><defs><clipPath id="clip0"><path fill="#fff" d="M0 0h19v19H0z"/></clipPath></defs></svg>