<svg width="58" height="58" fill="none" xmlns="http://www.w3.org/2000/svg"><g clip-path="url(#clip0)" fill="#fff"><path d="M57.149 56.297h-5.505V22.645a.851.851 0 00-.852-.851h-9.08a.851.851 0 00-.851.85v33.654h-6.47V32.633a.851.851 0 00-.85-.851H24.46a.851.851 0 00-.851.851v23.666h-6.47V37.171a.851.851 0 00-.851-.851h-9.08a.851.851 0 00-.852.851v19.125H.851a.851.851 0 100 1.703H57.15a.851.851 0 000-1.703zm-41.713 0H8.06V38.025h7.377v18.273zm17.253 0H25.31V33.483h7.378v22.815zm17.252 0h-7.377V23.495h7.377v32.802zM55.282.668A2.666 2.666 0 0053.186.02l-7.264.908c-1.442.18-2.497 1.534-2.316 2.977a2.67 2.67 0 002.977 2.316l.593-.074c-8.916 10.338-19.515 15.68-27.005 18.365-9.34 3.348-16.608 3.635-16.679 3.637A2.671 2.671 0 00.91 30.897a2.654 2.654 0 002.747 2.585c.323-.01 8.029-.282 18.18-3.9 5.708-2.033 11.078-4.732 15.961-8.023a.851.851 0 10-.951-1.412c-4.766 3.211-10.008 5.846-15.58 7.832-9.903 3.529-17.35 3.792-17.66 3.801h-.032a.96.96 0 01-.963-.935.966.966 0 01.935-.993c.074-.003 7.55-.277 17.2-3.736 8.083-2.898 19.698-8.815 29.127-20.547.47-.584-.027-1.47-.769-1.378l-2.731.342a.976.976 0 01-1.054-.715.974.974 0 01.814-1.2l7.264-.908a.974.974 0 011.085.957v7.264a.966.966 0 01-1.93 0V7.73a.864.864 0 00-.55-.796.865.865 0 00-.96.258A65.819 65.819 0 0140.28 17.669a.851.851 0 001.04 1.348 67.464 67.464 0 009.531-8.965 2.67 2.67 0 002.665 2.547 2.67 2.67 0 002.667-2.667V2.667a2.67 2.67 0 00-.902-2z"/></g><defs><clipPath id="clip0"><path fill="#fff" d="M0 0h58v58H0z"/></clipPath></defs></svg>