<svg width="62" height="62" fill="none" xmlns="http://www.w3.org/2000/svg"><g clip-path="url(#clip0)" fill="#fff"><path d="M31.907 41.342a.908.908 0 10-1.817 0v.544a.908.908 0 101.817 0v-.544zm0 5.086a.908.908 0 10-1.817 0v.544a.908.908 0 101.817 0v-.544zm0 5.085a.908.908 0 10-1.817 0v.545a.908.908 0 101.817 0v-.545zm-.909 4.178a.908.908 0 00-.908.908v.545a.908.908 0 101.817 0V56.6a.908.908 0 00-.909-.908zm5.818-9.424a.908.908 0 100-1.816h-.995c-.787 0-1.427.64-1.427 1.427v2.21c0 .787.64 1.428 1.427 1.428h6.228c.787 0 1.427-.64 1.427-1.428v-2.21c0-.787-.64-1.427-1.427-1.427h-.995a.908.908 0 100 1.816h.606V47.7h-5.45v-1.431h.606z"/><path d="M53.334 50.847a.908.908 0 00.908-.908v-4.55c0-3.53-2.175-6.891-5.29-8.173a2.181 2.181 0 00-.018-.007l-12.192-4.722-.002-2.372a9.53 9.53 0 003.843-6.551c2.362-.207 4.121-2.09 4.121-4.287 0-1.08-.41-2.135-1.104-2.942v-4.018C43.6 5.526 38.074 0 31.283 0h-.566C23.925 0 18.4 5.526 18.4 12.317v4.13c-.697.799-1.104 1.813-1.104 2.842 0 2.162 1.727 4.072 4.12 4.276a9.425 9.425 0 003.837 6.54v2.344l-12.19 4.76-.015.007c-2.547 1.049-5.29 4.053-5.29 8.172v14.129A2.486 2.486 0 0010.242 62h41.516a2.486 2.486 0 002.484-2.483v-5.34a.908.908 0 10-1.817 0v5.34a.668.668 0 01-.667.667h-4.807V44.46a.908.908 0 00-1.817 0v15.723H16.866V44.46a.908.908 0 10-1.817 0v15.723h-4.807a.668.668 0 01-.667-.667V45.388c0-3.5 2.484-5.797 4.158-6.49l7.583-2.961 4.58 3.798c.805.668 2.01.492 2.593-.372l.998-1.478h3.026l.998 1.478a1.768 1.768 0 002.593.372l4.56-3.781 7.605 2.945c2.067.855 4.156 3.357 4.156 6.49v4.55c0 .502.407.908.909.908zm-10.446-31.57c0 1.242-.987 2.242-2.235 2.449v-4.59c.234-.024.506-.094.722-.184.282-.118 1.513.88 1.513 2.325zm-21.541 2.45c-1.25-.201-2.235-1.201-2.235-2.438 0-.866.512-1.681 1.235-2.157a.324.324 0 01.225-.037c.337.06.572.054.775.054v4.579zm-.526-6.394a.605.605 0 01-.605-.605v-2.41c0-5.8 4.702-10.502 10.501-10.502h.566c5.8 0 10.5 4.702 10.5 10.501v2.837a2.039 2.039 0 00-1.111.123c-.33.139-.893 0-1.233-.162a2.248 2.248 0 01-1.28-2.019c0-.49-.335-.918-.81-1.038h-.001l-.026-.004a1.169 1.169 0 00-1.212.6 5.174 5.174 0 01-4.534 2.679H20.82zm2.342 7.09V17.15h8.413a7.006 7.006 0 005.175-2.289 4.112 4.112 0 002.086 1.976v5.587c0 4.243-3.455 7.708-7.704 7.712h-.016c-4.947-.005-7.954-3.893-7.954-7.712zm3.85 15.879l-3.762-3.12 2.607-1.02 2.533 2.1-1.377 2.04zm5.403-3.409c-.363.3-.585.73-.632 1.175h-1.568a1.781 1.781 0 00-.632-1.175L27.05 32.79a2.36 2.36 0 00.02-.283v-1.371c2.424 1.042 5.274 1.135 7.855.023l.001 1.356v.004c0 .093.008.185.023.274l-2.532 2.1zm2.57 3.409l-1.377-2.04 2.5-2.072 2.615 1.013-3.738 3.099z"/></g><defs><clipPath id="clip0"><path fill="#fff" d="M0 0h62v62H0z"/></clipPath></defs></svg>