<svg width="58" height="58" fill="none" xmlns="http://www.w3.org/2000/svg"><g clip-path="url(#clip0)"><path d="M57.23 33.8h-.001l-4.16-1.703-.28-.115.26-.153 4.31-2.537h0a.993.993 0 00-.13-1.778h0l-4.16-1.703-.28-.114.26-.154 4.308-2.536s0 0 0 0a.992.992 0 00.476-.943v-.003a.993.993 0 00-.615-.843h0L40.84 14.509h-.002l-8.064-3.427-.002-.001a.992.992 0 00-.356-.069h-.028l-.027-.01-13.142-5.35h0a.993.993 0 00-.865.05L.745 15.598l-.005.004h0a.993.993 0 00-.44 1.333h0a.993.993 0 00.539.483l.005.002h0l4.251 1.76.286.119-.27.15-4.365 2.434s0 0 0 0a.993.993 0 00.099 1.777s0 0 0 0l4.25 1.76.286.118-.27.151-4.343 2.434-.007.004-.007.004a.993.993 0 00-.524 1.302l-.138.059.138-.059a.993.993 0 00.603.554l.01.003h0l4.252 1.75.286.117-.27.152-4.342 2.434s0 0 0 0a.993.993 0 00-.375 1.353L57.229 33.8zm0 0a.993.993 0 01.129 1.777h0l-4.31 2.537-.26.154.28.114 4.16 1.703h0a.993.993 0 01.13 1.777h0L39.644 52.284h0M57.229 33.8L39.645 52.285M15.66 42.5l.014.01a.993.993 0 00.145.088l8.076 3.427h0l14.856 6.32L15.66 42.5zm0 0l-.016-.007m.016.007l-.016-.007m0 0L.868 36.22s0 0 0 0m14.776 6.273L.868 36.22m38.777 16.065a.993.993 0 01-.894.06l.894-.06zM.868 36.22a.992.992 0 01-.474-.424l.474.424zm53.488-7.492l.261-.154-.28-.115-3.634-1.485-.069-.028-.064.037-10.936 6.434h0a.993.993 0 01-.894.06h0l-13.257-5.634-.208-.088v4.131l.091.039 13.622 5.782.07.03.065-.039 15.233-8.97zm.046-6.297l.261-.154-.28-.114-13.714-5.6-.074-.03-.066.044-13.942 9.314-.23.154.255.109 12.376 5.256.07.03.065-.038 15.279-8.971zM14.967 40.073l.208.088v-.226l.012-3.794v-.1l-.091-.038-7.371-3.132-.068-.028-.064.036-3.852 2.16-.266.149.281.12 11.21 4.765zm0-6.285l.208.088v-.226l.012-3.817v-.1l-.091-.038-7.371-3.132-.069-.029-.064.037-3.851 2.182-.264.15.28.12 11.21 4.765zm0-6.286l.208.088v-.225l.012-3.783v-.1l-.091-.039-7.371-3.13-.068-.03-.064.036-3.852 2.16-.266.15.281.12 11.211 4.753zM3.741 16.194l-.266.15.281.119 12.262 5.211.075.032.067-.045 13.805-9.211.235-.157-.261-.107-10.96-4.49-.067-.028-.063.035L3.74 16.194zM23.29 26.256v0c0-.33.163-.64.437-.825 0 0 0 0 0 0l14.456-9.656.235-.157-.262-.106-5.634-2.286-.074-.03-.066.044L17.24 23.331l-.067.044V41.03l.092.038 5.817 2.468.208.089V26.256zm31.067 15.042l.257-.15-.274-.117-3.634-1.543-.07-.03-.065.039-10.936 6.434h0a.992.992 0 01-.894.06h0l-13.257-5.577-.208-.088v4.12l.091.038 13.622 5.782.07.03.065-.038 15.233-8.96zm-15.368 2.683l.07.03.065-.039 15.233-8.96.26-.152-.279-.115-3.623-1.486-.068-.028-.065.038-10.936 6.434h0a.993.993 0 01-.894.06s0 0 0 0l-13.267-5.634-.21-.09v4.121l.092.039 13.622 5.782z" fill="#fff" stroke="#E84A55" stroke-width=".3"/></g><defs><clipPath id="clip0"><path fill="#fff" d="M0 0h58v58H0z"/></clipPath></defs></svg>