<svg width="58" height="58" fill="none" xmlns="http://www.w3.org/2000/svg"><g clip-path="url(#clip0)" fill="#E84A55"><path d="M48.32 32.164l-8.66-13.576a3.855 3.855 0 002.066-3.41A3.857 3.857 0 0039.3 11.6l2.624-9.173a1.133 1.133 0 00-.288-1.112 4.481 4.481 0 00-6.33 0 2.195 2.195 0 01-1.563.647c-.59 0-1.145-.23-1.565-.65l-.006-.006a4.484 4.484 0 00-6.32-.01l-.032.033a2.214 2.214 0 01-3.12-.006l-.008-.008a4.481 4.481 0 00-6.33 0 1.133 1.133 0 00-.288 1.113l2.629 9.17a3.857 3.857 0 00-2.43 3.578c0 1.48.839 2.767 2.066 3.412L9.68 32.163c-3.35 5.252-3.563 11.65-.568 17.112C12.107 54.739 17.614 58 23.843 58h10.313c6.23 0 11.737-3.261 14.732-8.724 2.994-5.463 2.782-11.86-.568-17.112zM21.09 2.918l.009.008a4.485 4.485 0 006.32.01l.032-.032a2.215 2.215 0 013.122.008l.006.006a4.481 4.481 0 006.33 0 2.214 2.214 0 012.626-.375l-2.512 8.782h-16.04l-2.518-8.782a2.214 2.214 0 012.625.375zM46.9 48.187c-2.59 4.726-7.355 7.547-12.744 7.547H23.844c-5.39 0-10.154-2.821-12.745-7.547-2.591-4.726-2.408-10.26.491-14.804l9.157-14.354h3.155a1.133 1.133 0 100-2.266h-3.777a1.588 1.588 0 01-1.586-1.586c0-.874.712-1.586 1.586-1.586h17.749c.874 0 1.586.712 1.586 1.586 0 .875-.712 1.586-1.586 1.586h-3.776a1.133 1.133 0 100 2.266h3.155l9.157 14.354c2.898 4.544 3.082 10.078.49 14.804z"/><path d="M30.997 36.998a62.189 62.189 0 01-.864-.314v-5.135a4.658 4.658 0 011.303.609 1.133 1.133 0 001.363-1.81c-.067-.05-1.12-.832-2.666-1.128v-1.128a1.133 1.133 0 00-2.266 0v1.12a5.872 5.872 0 00-.584.142c-1.594.48-2.786 1.843-3.11 3.559-.296 1.566.206 3.077 1.31 3.943.6.47 1.348.899 2.384 1.355v6.57c-.892-.057-1.489-.26-2.484-.91a1.133 1.133 0 10-1.24 1.896c1.45.949 2.433 1.217 3.724 1.281v1.172a1.133 1.133 0 102.266 0v-1.29c2.426-.53 3.845-2.555 4.163-4.449.416-2.476-.879-4.628-3.299-5.483zm-4.116-1.925c-.435-.341-.62-1.008-.481-1.74.127-.673.58-1.485 1.467-1.785v4.149a6.781 6.781 0 01-.986-.624zm5.18 7.032c-.163.97-.818 2-1.928 2.454v-5.465l.109.04c2.031.718 1.906 2.456 1.82 2.971zM29 19.029c.297 0 .59-.121.8-.332a1.133 1.133 0 000-1.601 1.141 1.141 0 00-.8-.333c-.298 0-.59.121-.801.332a1.14 1.14 0 00-.332.801 1.137 1.137 0 001.132 1.133z"/></g><defs><clipPath id="clip0"><path fill="#fff" d="M0 0h58v58H0z"/></clipPath></defs></svg>