<svg width="18" height="18" fill="none" xmlns="http://www.w3.org/2000/svg"><g clip-path="url(#clip0)"><path d="M14.33 3.082C13.236 1.197 11.295.045 9.138.002a6.735 6.735 0 00-.277 0c-2.158.043-4.098 1.195-5.19 3.08a6.266 6.266 0 00-.083 6.192l4.464 8.17A1.075 1.075 0 009 18c.393 0 .745-.204.941-.545l.006-.01 4.464-8.17a6.267 6.267 0 00-.082-6.193zM9 8.156a2.534 2.534 0 01-2.53-2.531A2.534 2.534 0 019 3.094a2.534 2.534 0 012.531 2.531 2.534 2.534 0 01-2.53 2.531z" fill="#333"/></g><defs><clipPath id="clip0"><path fill="#fff" d="M0 0h18v18H0z"/></clipPath></defs></svg>