<svg width="57" height="57" fill="none" xmlns="http://www.w3.org/2000/svg"><path d="M41.86 9.797a5.344 5.344 0 105.343 5.344 5.35 5.35 0 00-5.344-5.344zm0 8.906a3.562 3.562 0 110-7.124 3.562 3.562 0 010 7.124zm-13.468 10.58l1.043-1.044-1.259-1.26-1.044 1.044a13.205 13.205 0 00-2.588 3.656l1.608.767a11.428 11.428 0 012.24-3.163zm-5.003 6.215l1.763.254c.08-.56.202-1.112.363-1.653l-1.706-.51a13.325 13.325 0 00-.42 1.909z" fill="#fff"/><path d="M54.328 1.781H51.32a17.165 17.165 0 00-12.218 5.061 36.13 36.13 0 00-4.59 5.627h-3.124a9.947 9.947 0 00-7.08 2.933.89.89 0 000 1.259l3.563 3.563a.89.89 0 00.63.26h2.034c-.048.137-.095.273-.141.41l-2.523 2.523A94.873 94.873 0 0017.035 36.39a7.12 7.12 0 00-10.786 2 4.456 4.456 0 00-4.245 1.414l1.336 1.179a2.675 2.675 0 012.227-.895 7.114 7.114 0 00-.223 1.771h1.781a5.342 5.342 0 018.9-3.986c-.285.43-.568.86-.848 1.293l-.159.247a7.237 7.237 0 01-6.111 3.337v1.781a9.009 9.009 0 007.61-4.154l.159-.248a93.072 93.072 0 0111.829-14.818l3.189 3.189-2.042 2.042a9.708 9.708 0 000 13.728l1.26-1.26a7.867 7.867 0 01-2.22-4.339 3.562 3.562 0 015.087 2.513 7.944 7.944 0 00-1.16.368l.669 1.65a6.238 6.238 0 018.572 5.782h1.78a8.025 8.025 0 00-8.015-8.015l-.075.002a5.346 5.346 0 00-6.934-4.19 7.865 7.865 0 012.295-4.98l5.195-5.195a35.3 35.3 0 00.41-.14V28.5a.89.89 0 00.26.63l3.563 3.562a.89.89 0 001.26 0 9.949 9.949 0 002.933-7.08v-3.125a36.147 36.147 0 005.626-4.588A17.166 17.166 0 0055.22 5.68V2.672a.89.89 0 00-.89-.89zm-.89 1.782V5.68a15.583 15.583 0 01-.54 4.078 5.83 5.83 0 01-3.484-1.682l-.49-.49a5.83 5.83 0 01-1.681-3.484c1.329-.36 2.7-.54 4.077-.54h2.118zm-24.569 15.14l-2.638-2.638a8.17 8.17 0 015.157-1.815h2.02a36.312 36.312 0 00-2.196 4.453h-2.343zm.89 5.344l1.413-1.412 3.194 3.193-1.413 1.412-3.193-3.193zm12.991 1.565a8.17 8.17 0 01-1.815 5.158l-2.638-2.639v-2.343a36.314 36.314 0 004.453-2.196v2.02zm6.148-8.973a34.563 34.563 0 01-13.035 8.168l-3.67-3.67a34.563 34.563 0 018.168-13.035 15.464 15.464 0 015.164-3.423 7.6 7.6 0 002.14 4.167l.49.49a7.6 7.6 0 004.166 2.14 15.467 15.467 0 01-3.422 5.163zM8.037 48.407a5.341 5.341 0 00-5.01.756l1.07 1.424a3.563 3.563 0 015.7 2.85h1.781a5.336 5.336 0 00-1.987-4.153 4.455 4.455 0 015.995-1.486l.891-1.541a6.239 6.239 0 00-8.44 2.15z" fill="#fff"/><path d="M24.938 44.531a6.223 6.223 0 00-4.157 1.588l1.188 1.327a4.455 4.455 0 017.169 4.804l1.68.594a6.238 6.238 0 00-5.88-8.313z" fill="#fff"/></svg>