<svg width="60" height="60" fill="none" xmlns="http://www.w3.org/2000/svg"><path d="M51.213 8.787C45.547 3.12 38.013 0 30 0a29.835 29.835 0 00-16.977 5.264 1.172 1.172 0 001.328 1.932A27.5 27.5 0 0130 2.344C45.25 2.344 57.656 14.75 57.656 30c0 15.25-12.407 27.656-27.656 27.656C14.75 57.656 2.344 45.25 2.344 30a27.497 27.497 0 014.851-15.648 1.171 1.171 0 10-1.931-1.328A29.83 29.83 0 000 30c0 8.013 3.12 15.547 8.787 21.213C14.453 56.88 21.987 60 30 60c8.013 0 15.547-3.12 21.213-8.787C56.88 45.547 60 38.013 60 30c0-8.013-3.12-15.547-8.787-21.213z" fill="#E84A55"/><path d="M9.615 10.787a1.172 1.172 0 10-.828-2 1.172 1.172 0 00.828 2zm10.97 27.333a1.172 1.172 0 10-2.264.606A12.108 12.108 0 0030 47.688a12.108 12.108 0 0011.679-8.962 1.172 1.172 0 00-2.264-.606A9.76 9.76 0 0130 45.344a9.76 9.76 0 01-9.415-7.224zm15.805-8.58a3.095 3.095 0 012.985-2.292c1.396 0 2.623.942 2.985 2.291a1.172 1.172 0 002.264-.607 5.441 5.441 0 00-5.249-4.027 5.442 5.442 0 00-5.248 4.027 1.172 1.172 0 102.263.607zm-15.766-4.635a5.441 5.441 0 00-5.248 4.027 1.172 1.172 0 102.264.607 3.095 3.095 0 012.984-2.29c1.397 0 2.624.942 2.986 2.29a1.172 1.172 0 002.263-.607 5.442 5.442 0 00-5.249-4.027z" fill="#E84A55"/></svg>