<svg height="512pt" viewBox="0 -66 512 512" width="512pt" fill="#fff" xmlns="http://www.w3.org/2000/svg"><path d="M60 290c0 5.523-4.477 10-10 10s-10-4.477-10-10 4.477-10 10-10 10 4.477 10 10zm0 0"/><path d="M502 0H10C4.477 0 0 4.477 0 10v360c0 5.523 4.477 10 10 10h492c5.523 0 10-4.477 10-10V10c0-5.523-4.477-10-10-10zM20 260h472v20H90c-5.523 0-10 4.477-10 10s4.477 10 10 10h402v20H20zm0-240h472v220H20zm0 340v-20h472v20zm0 0"/><path d="M462 60c-5.516 0-10-4.484-10-10 0-5.523-4.477-10-10-10H70c-5.523 0-10 4.477-10 10 0 5.516-4.484 10-10 10-5.523 0-10 4.477-10 10v120c0 5.523 4.477 10 10 10 5.516 0 10 4.484 10 10 0 5.523 4.477 10 10 10h372c5.523 0 10-4.477 10-10 0-5.516 4.484-10 10-10 5.523 0 10-4.477 10-10V70c0-5.523-4.477-10-10-10zm-10 121.715A30.135 30.135 0 00433.715 200H78.285A30.135 30.135 0 0060 181.715V78.285A30.135 30.135 0 0078.285 60h355.43A30.135 30.135 0 00452 78.285zm0 0"/><path d="M256 80c-27.57 0-50 22.43-50 50s22.43 50 50 50 50-22.43 50-50-22.43-50-50-50zm0 80c-16.543 0-30-13.457-30-30s13.457-30 30-30 30 13.457 30 30-13.457 30-30 30zm146-60c-16.543 0-30 13.457-30 30s13.457 30 30 30 30-13.457 30-30-13.457-30-30-30zm0 40c-5.516 0-10-4.484-10-10s4.484-10 10-10 10 4.484 10 10-4.484 10-10 10zm-292-40c-16.543 0-30 13.457-30 30s13.457 30 30 30 30-13.457 30-30-13.457-30-30-30zm0 40c-5.516 0-10-4.484-10-10s4.484-10 10-10 10 4.484 10 10-4.484 10-10 10zm0 0"/></svg>