<svg width="100" height="39" fill="none" xmlns="http://www.w3.org/2000/svg"><path d="M95.226 7.614H89.1c-.107.153-.217.309-.325.466a81.37 81.37 0 00-1.8 2.745 93.223 93.223 0 00-1.685 2.792c-.38.67-.782 1.37-1.2 2.101a59.06 59.06 0 00-1.229 2.26c.265-.063.528-.125.787-.19.255-.062.49-.146.7-.25.495-.209.86-.529 1.1-.957.239-.428.308-.882.215-1.365-.02-.124-.015-.203.014-.234.029-.031.081-.048.158-.048.095 0 .21.005.342.017.133.012.246.016.341.016.115 0 .19.115.23.345.057.461-.029.877-.258 1.255-.23.375-.552.66-.97.846-.4.167-.857.335-1.37.502a30.79 30.79 0 01-1.344.409c-.02.021-.067.03-.143.03l-.058.125c.02.022.034.043.043.062.01.022.034.053.072.094a14.958 14.958 0 002.113 2.195c.495.417 1.038.659 1.628.721a1.902 1.902 0 001.542-.502c.342-.313.72-.741 1.128-1.286.41-.543.748-1.088 1.014-1.63.057-.106.124-.142.2-.11.077.03.077.11 0 .234-.172.313-.384.66-.642 1.035-.259.375-.538.753-.844 1.128-.304.376-.62.737-.942 1.083-.325.344-.629.643-.913.894-.304.273-.648.376-1.028.313a2.487 2.487 0 01-1.028-.408 4.077 4.077 0 01-.815-.706 15.241 15.241 0 01-.87-1.051 7.547 7.547 0 01-.428-.581 5.017 5.017 0 00-.428-.55l-.172-.22a53.4 53.4 0 00-.7 1.348c-.22.44-.433.868-.644 1.286-.191.397-.39.48-.6.251-.134-.146-.134-.325 0-.533.23-.459.476-.925.744-1.396.265-.47.456-.832.571-1.083l-.284.22c-.23.125-.471.277-.73.454-.258.177-.509.34-.757.486-.514.334-.985.633-1.413.894-.428.26-.825.444-1.186.55a5.08 5.08 0 01-1.272.203c-.408.012-.68-.12-.812-.392a4.432 4.432 0 01-.414-.942 7.68 7.68 0 01-.287-1.176c-.067-.41-.12-.81-.158-1.207a6.528 6.528 0 01-.028-1.036c.019-.124.076-.203.172-.234.095-.031.134.005.115.11a6.71 6.71 0 00.043 1.695c.086.564.205 1.026.356 1.38.21.44.619.669 1.228.69.61.022 1.277-.136 1.999-.47a27.99 27.99 0 001.556-.785 33.402 33.402 0 011.757-.877l.486-.22.114-.158c-.057 0-.095-.01-.114-.031a7.03 7.03 0 01-1.072-.58 43.86 43.86 0 01-1.013-.675 1.075 1.075 0 01-.485-.925c0-.387.172-.8.514-1.238.153-.23.287-.326.399-.283.096 0 .215.005.356.017.143.012.26.017.356.017.077.043.115.079.115.11s-.048.1-.143.203c-.361.461-.553.906-.572 1.334-.019.428.144.78.485 1.052.134.124.309.234.529.33.217.093.509.234.87.423l.23-.375a44.923 44.923 0 011.114-1.991c.229-.388.46-.78.7-1.177.239-.397.47-.784.7-1.162.552-.899 1.124-1.814 1.714-2.744a93.091 93.091 0 011.948-2.945H61.313v18.732h4.604c2.11-3.433 3.093-5.2 2.952-5.297-.361.25-.99.576-1.886.973h-.086c-.325 0-.486-.208-.486-.627 0-.189.067-.428.201-.722.246-.459.548-1.03.9-1.709.35-.679.747-1.49 1.185-2.431.038-.124.057-.22.057-.282 0-.105-.057-.158-.172-.158-.115 0-.351.105-.715.313-.36.21-.561.313-.6.313-.076 0-.115-.052-.115-.157 0-.106.058-.177.173-.22.552-.23 1.037-.428 1.456-.595a9.13 9.13 0 001.027-.471 1.21 1.21 0 01.201-.063c.077 0 .144.043.201.125.057.083.086.146.086.188 0 .084-.076.242-.23.472-.21.272-.432.602-.671.987-.24.387-.49.832-.758 1.334-.629 1.192-.942 2.017-.942 2.479 0 .25.086.375.256.375.265 0 .648-.251 1.143-.753.38-.375.676-.753.884-1.128.266-.48.533-.935.8-1.365.266-.428.534-.832.802-1.208 1.465-2.175 2.589-3.533 3.37-4.078.495-.356.942-.533 1.344-.533.552 0 .83.273.83.815v.251c-.096.545-.163.815-.201.815-.058 0-.096-.074-.115-.22-.115-.44-.514-.678-1.2-.721h-.029c-.36 0-.696.114-1 .344a6.556 6.556 0 00-.47.392 4.742 4.742 0 00-.328.33c-.456.545-1.037 1.444-1.742 2.699l-.686 1.255-1.028 1.881c-1.315 2.405-2.51 4.458-3.586 6.165l-.148.232h28.633A4.776 4.776 0 00100 21.568v-9.182a4.773 4.773 0 00-4.773-4.772zm.368 10.409c0 .325-.265.59-.59.59H93.7a.592.592 0 01-.59-.59V16.72a.59.59 0 01.59-.59h1.302a.59.59 0 01.59.59v1.303zm-30.124 9.05c-1.296 2.092-2.685 3.973-4.17 5.646-1.694 1.882-3.417 3.18-5.17 3.89-.913.375-1.94.564-3.084.564h-.057c-1.771-.043-3.237-.461-4.398-1.255-1.296-.92-1.944-2.132-1.944-3.638v-.158c0-.084.014-.203.043-.361a8.3 8.3 0 01.1-.471c.039-.158.072-.308.1-.454.03-.146.044-.251.044-.313 0-.106-.029-.158-.086-.158-.096 0-.153.074-.172.22a6.097 6.097 0 00-.23 1.661 7.43 7.43 0 00.543 2.854c.82 2.07 2.429 3.106 4.826 3.106h.03c1.56 0 3.16-.44 4.797-1.318 2.094-1.128 4.494-3.346 7.198-6.65.817-.997 1.735-2.297 2.751-3.894h-.676c-.141.239-.292.48-.445.73z" fill="#028CAB"/><path d="M70.325 19.952l1.028-1.882.686-1.255c.705-1.255 1.286-2.153 1.743-2.698.095-.106.205-.216.327-.33.125-.115.28-.247.471-.392.304-.23.639-.345 1-.345h.028c.686.043 1.085.282 1.2.722.02.146.057.22.115.22.038 0 .105-.272.2-.815v-.25c0-.543-.277-.816-.829-.816-.399 0-.848.177-1.343.533-.782.545-1.905 1.903-3.37 4.078-.269.376-.534.78-.802 1.207a31.41 31.41 0 00-.8 1.365c-.21.376-.505.753-.885 1.129-.495.502-.877.753-1.143.753-.172 0-.255-.124-.255-.375 0-.46.313-1.287.941-2.48.266-.502.52-.946.758-1.333a11.4 11.4 0 01.672-.988c.153-.23.23-.387.23-.47 0-.041-.03-.106-.087-.19-.057-.083-.124-.124-.2-.124-.02 0-.087.022-.201.062a9.74 9.74 0 01-1.028.471c-.419.168-.904.366-1.456.596-.115.043-.172.114-.172.22 0 .105.038.157.115.157.038 0 .239-.105.6-.313.36-.208.6-.313.714-.313.115 0 .172.052.172.158 0 .062-.019.157-.057.282a63.976 63.976 0 01-1.186 2.43c-.35.68-.652 1.251-.898 1.71-.134.294-.201.533-.201.722 0 .418.162.626.485.626h.086c.894-.396 1.523-.722 1.886-.973.144.099-.841 1.865-2.952 5.298h.677l.148-.232c1.073-1.704 2.268-3.76 3.583-6.165z" fill="#fff"/><path d="M90.631 5.585a23.193 23.193 0 011.886-2.07 9.46 9.46 0 011.643-1.318 6.994 6.994 0 011.642-.753c.284-.105.571-.181.856-.234.284-.052.523-.088.715-.11.21-.04.265-.124.172-.25A2.953 2.953 0 0197.4.566a5.83 5.83 0 00-.172-.344c-.096-.167-.258-.24-.485-.22-.725.124-1.454.461-2.185 1.004-.734.545-1.48 1.224-2.242 2.04a30.142 30.142 0 00-1.886 2.227 53.825 53.825 0 00-1.707 2.343h.375a37.823 37.823 0 011.532-2.032z" fill="#028CAB"/><path d="M86.775 10.557c-.59.93-1.162 1.846-1.714 2.744-.23.376-.461.763-.7 1.162-.24.397-.471.789-.7 1.176a45.446 45.446 0 00-1.115 1.992l-.23.375a13.18 13.18 0 00-.87-.423 1.755 1.755 0 01-.528-.33 1.21 1.21 0 01-.485-1.052c.02-.428.21-.873.571-1.334.096-.105.144-.172.144-.203 0-.031-.038-.067-.115-.11-.096 0-.215-.005-.356-.017a5.806 5.806 0 00-.356-.017c-.115-.04-.249.053-.4.283-.342.44-.514.853-.514 1.238 0 .387.163.695.486.925.303.21.643.435 1.013.674.37.242.73.435 1.071.581.02.022.058.031.115.031l-.115.158-.485.225c-.629.294-1.214.585-1.757.877-.543.294-1.061.555-1.556.784-.725.335-1.392.492-1.999.47-.61-.02-1.018-.25-1.229-.69-.152-.356-.27-.815-.356-1.38a6.708 6.708 0 01-.043-1.694c.02-.105-.019-.141-.115-.11-.095.031-.153.11-.172.234-.019.294-.01.639.03 1.035.037.397.09.801.157 1.207.067.41.162.801.287 1.177.124.375.26.69.413.941.134.273.404.404.813.392a5.06 5.06 0 001.272-.203 4.942 4.942 0 001.186-.55c.427-.26.898-.559 1.412-.893.247-.146.5-.309.758-.486s.5-.33.73-.454l.284-.22c-.115.251-.304.612-.572 1.083-.267.47-.514.937-.743 1.396-.134.21-.134.387 0 .533.21.23.409.146.6-.25l.643-1.287c.218-.44.452-.89.7-1.348l.172.22c.154.167.294.351.428.55.134.198.275.392.428.58.304.397.596.749.87 1.052.275.304.548.538.816.705.303.208.647.345 1.028.41.38.061.724-.044 1.027-.314.287-.25.59-.55.914-.894a18.87 18.87 0 001.785-2.211c.258-.375.471-.722.643-1.035.077-.125.077-.204 0-.235-.076-.03-.143.005-.2.11a10.166 10.166 0 01-1.014 1.63c-.409.546-.787.974-1.128 1.287a1.902 1.902 0 01-1.542.502c-.59-.062-1.133-.304-1.628-.722a14.954 14.954 0 01-2.113-2.195.459.459 0 01-.072-.093.242.242 0 00-.043-.062l.057-.124c.077 0 .125-.01.144-.031.38-.106.83-.24 1.343-.41.514-.166.97-.334 1.37-.501.418-.189.743-.471.97-.846.23-.376.314-.794.259-1.255-.039-.23-.115-.345-.23-.345-.095 0-.21-.004-.342-.016a5.159 5.159 0 00-.342-.017c-.076 0-.129.017-.157.048-.029.03-.034.11-.015.234.096.48.024.937-.215 1.365-.239.428-.605.748-1.1.956a3.26 3.26 0 01-.7.251l-.786.189c.399-.774.808-1.527 1.228-2.259l1.2-2.101c.533-.92 1.095-1.85 1.686-2.792.59-.942 1.19-1.855 1.8-2.745.107-.157.217-.31.325-.466h-.375c-.05.072-.1.141-.149.215a82.48 82.48 0 00-1.802 2.723zm8.229 5.573H93.7a.592.592 0 00-.59.59v1.303c0 .325.265.59.59.59h1.303c.325 0 .59-.265.59-.59V16.72a.59.59 0 00-.59-.59z" fill="#fff"/><path d="M57.465 18.613h1.302c.325 0 .59-.265.59-.59V16.72a.592.592 0 00-.59-.59h-1.303a.592.592 0 00-.59.59v1.303c0 .327.265.59.59.59z" fill="#010202"/><path d="M16.413 10.976h4.026v-2.05h-7.576v5.654h3.55v-3.604zm3.753 4.994c-.49-.25-1.085-.462-2.06-.54h-5.243v1.598h8.166c-.177-.5-.463-.855-.863-1.059z" fill="#E84A55"/><path d="M17.797 18.212a.77.77 0 01.122.425l-.06 4.7c0 .631-.588.868-1.446.86v-5.983h-3.55v8.31h3.98c1.882 0 2.907-.268 3.507-.804.603-.535.902-1.307.902-2.314v-4.872c0-.112-.008-.217-.012-.322h-3.443z" fill="#010202"/><path d="M42.109 8.927h-3.466v5.653h3.466V8.927z" fill="#E84A55"/><path d="M42.109 18.212h-3.466v8.311h3.466v-8.311z" fill="#010202"/><path d="M42.109 15.43h-3.466v1.598h3.466V15.43z" fill="#E84A55"/><path d="M55.148 26.523V20.7c.012-.91-.107-1.752-.284-2.488h-3.835c.388 1.109.634 2.19.653 3.994.031 3.015 0 4.317 0 4.317h3.466z" fill="#010202"/><path d="M50.298 8.927h-3.466v5.653h3.466V8.927zm4.645 3.392c.107-.679.205-3.392.205-3.392h-3.466s-.22 3.447-.373 4.138c-.186.841-.418 1.207-.755 1.518h3.657c.364-.557.595-1.387.732-2.264zm-1.171 3.111h-6.94v1.598h7.676a10.016 10.016 0 00-.736-1.599z" fill="#E84A55"/><path d="M50.298 18.212h-3.466v8.311h3.466v-8.311z" fill="#010202"/><path d="M29.093 15.43h-3.309c-.098.857-.136 1.5-.143 1.598h3.466c-.002-.1-.022-.71-.014-1.599z" fill="#E84A55"/><path d="M29.107 18.212H25.64v8.311h3.466v-8.311z" fill="#010202"/><path d="M30.297 17.028h3.466c-.005-.1-.045-.74-.143-1.599h-3.31c.007.89-.012 1.499-.014 1.6zm.003-2.448h3.21a20.425 20.425 0 00-.397-2.087c-.462-1.816-1.3-3.566-1.3-3.566H27.59s-.84 1.75-1.3 3.566c-.173.677-.302 1.41-.397 2.087h3.21l.002-.14c.141-1.25.397-2.382.596-3.531.198 1.15.454 2.28.595 3.53l.002.141z" fill="#E84A55"/><path d="M33.763 18.212h-3.466v8.311h3.466v-8.311z" fill="#010202"/><path d="M8.57 15.43H5.003v1.598H8.57V15.43zM4.315 8.652C1.439 8.652 0 9.792 0 12.075v2.505h3.567v-3.289c0-.351.243-.528.734-.528.47 0 .705.177.705.528v3.29h3.566v-2.53c-.002-2.266-1.42-3.399-4.257-3.399zm-.748 6.778H0v1.598h3.567V15.43z" fill="#E84A55"/><path d="M5.003 23.93c0 .351-.234.528-.705.528-.488 0-.734-.177-.734-.528v-5.718H0v5.19c0 2.11 1.43 3.165 4.291 3.165 1.272 0 2.302-.278 3.093-.828.792-.552 1.186-1.338 1.186-2.361v-5.166H5.003v5.718z" fill="#010202"/></svg>